# xmcd
#
# Track frame offsets: 
#        150
#        15244
#        28815
#        40902
#        50996
#        64064
#        77359
#        90716
#        104271
#        118036
#        133040
#        145276
#        159534
#        174190
#        186908
#        199914
#        214512
#        225539
#        239399
#        253150
#        265767
#        279662
#        291449
#
# Disc length: 4077 seconds
#
# Revision: 1
# Processed by: cddbd v1.5.2PL0 Copyright (c) Steve Scherf et al.
# Submitted via: ExactAudioCopy v0.99pb3
#
DISCID=4e0feb17
DTITLE=Jazz In The Charts  - 088 (1947-1948) Save The Bones For Henry 
DTITLE=Jones 
DYEAR=1947
DGENRE=Jazz
TTITLE0=Louis Prima and His Orchestra - Civilization (Bongo, Bongo, Bong
TTITLE0=o)
TTITLE1=Ziggy Elman and His Orchestra - Body And Soul
TTITLE2=King Cole Trio - Save The Bones For Henry Jones ('Cause Henry 
TTITLE2=Don't Eat No Meat) (voc Nat 'King' Cole and Johnny Mercer)
TTITLE3=Mills Brothers - When You Were Sweet Sixteen
TTITLE4=Julia Lee and Her Boy Friends - Snatch It And Grab It
TTITLE5=King Cole Trio - Harmony (voc Nat 'King' Cole and Johnny Mercer)
TTITLE6=Billy Eckstine - The Wildest Gal In Town
TTITLE7=Harry James and His Orchestra - I Still Get Jealous (voc Buddy D
TTITLE7=eVito)
TTITLE8=Sarah Vaughan with The George Treadwell Orchestra - Tenderly
TTITLE9=Woody Herman and His Orchestra - Civilization (Bongo, Bongo, Bon
TTITLE9=go) (voc Woody Herman)
TTITLE10=Stan Kenton and His Orchestra - Curiosity (voc June Christy)
TTITLE11=Ray McKinley and His Orchestra - Civilization (Bongo, Bongo, Bo
TTITLE11=ngo) (voc Ray McKinley)
TTITLE12=Claude Thornhill and His Orchestra - Love For Love (voc Fran Wa
TTITLE12=rren)
TTITLE13=King Cole Trio - Those Things Money Can't Buy (voc Nat 'King'
TTITLE13=Cole)
TTITLE14=Claude Thornhill and His Orchestra - Early Autumn (voc Fran War
TTITLE14=ren)
TTITLE15=King Cole Trio - The Christmas Song (voc Nat 'King' Cole)
TTITLE16=Anita O'Day with Will Bradley's Orchestra - Hi Ho Trailus Boa
TTITLE16=t Whip
TTITLE17=Ray McKinley and His Orchestra - Your Red Wagon (voc Ray McKinl
TTITLE17=ey)
TTITLE18=Count Basie and His Orchestra - Blue And Sentimental (voc Bob B
TTITLE18=ailey)
TTITLE19=Stan Kenton and His Orchestra - I Told Ya I Love Ya, Now Get Ou
TTITLE19=t (voc June Christy)
TTITLE20=King Cole Trio - What'll I Do? (voc Nat 'King' Cole)
TTITLE21=Jimmy Dorsey and His Orchestra - Ballerina (voc Bob Carroll)
TTITLE22=Claude Thornhill and His Orchestra - Warsaw Concerto
EXTD=
EXTT0=
EXTT1=
EXTT2=
EXTT3=
EXTT4=
EXTT5=
EXTT6=
EXTT7=
EXTT8=
EXTT9=
EXTT10=
EXTT11=
EXTT12=
EXTT13=
EXTT14=
EXTT15=
EXTT16=
EXTT17=
EXTT18=
EXTT19=
EXTT20=
EXTT21=
EXTT22=
PLAYORDER=
